<svg xmlns="http://www.w3.org/2000/svg" xmlns:xlink="http://www.w3.org/1999/xlink" width="59" height="31" viewBox="0 0 59 31">
    <defs>
        <path id="a" d="M.123 21.325h18.4V.085H.123v21.24z"/>
    </defs>
    <g fill="none" fill-rule="evenodd">
        <path fill="#FFF" d="M13.132 6.898c.187.412.157.926-.18 1.345l-4.729 5.933a1.291 1.291 0 0 0-.159 1.367l1.734 3.628a1.28 1.28 0 0 0 2.158.247L22.08 6.712c.307-.387.364-.917.151-1.363l-1.103-2.308L20.022.734A1.289 1.289 0 0 0 18.866 0H2.66c-.944 0-1.565.989-1.155 1.844L3.243 5.47c.214.448.667.733 1.163.73h7.569c.535-.003.954.294 1.157.698"/>
        <g transform="translate(40.317 9.497)">
            <mask id="b" fill="#fff">
                <use xlink:href="#a"/>
            </mask>
            <path fill="#FFF" d="M18.264 5.407c-.148-.313-1.158-2.43-1.759-3.689-.69-1.45-1.534-1.633-2.27-1.633H2.406a1.288 1.288 0 0 0-1.159.73l-.893 1.89-.09.19a1.484 1.484 0 0 0-.142.561v16.768c-.01.563.479 1.077 1.101 1.1h3.998c.622-.022 1.11-.537 1.1-1.1V6.962a.942.942 0 0 1 .224-.384c.292-.304.684-.269.684-.269H11.376s.392-.034.684.269c.292.303.268.679.268.679V8.26s.024.376-.268.679c-.292.303-.684.268-.684.268h-1.274c-.495 0-.946.29-1.16.74l-1.725 3.599a1.287 1.287 0 0 0 1.158 1.84l5.925-.002h.35c.627-.084 1.294-.446 1.857-1.632.6-1.26 1.61-3.329 1.76-3.642.212-.448.256-.604.256-1.108V6.517c0-.505-.044-.662-.259-1.11" mask="url(#b)"/>
        </g>
        <path fill="#FFF" d="M30.12 24.884h4.92c.737 0 1.581-.182 2.27-1.633.6-1.26 1.61-3.376 1.76-3.689.215-.45.259-.605.259-1.11v-7.77c.01-.563-.479-1.076-1.101-1.1h-2.812a1.289 1.289 0 0 0-1.16.73l-.894 1.89-.09.19a1.48 1.48 0 0 0-.142.561v4.783s.025.376-.267.679c-.292.304-.685.268-.685.268H27.768s-.392.035-.684-.268c-.292-.304-.267-.679-.267-.679v-4.783a1.442 1.442 0 0 0-.142-.56l-.09-.191-.894-1.89a1.288 1.288 0 0 0-1.16-.73h-2.81c-.623.023-1.111.537-1.102 1.1v7.77c0 .505.044.661.259 1.11.149.313 1.158 2.43 1.76 3.689.689 1.45 1.533 1.633 2.27 1.633h5.212z"/>
        <path fill="#9AC321" d="M9.226 17.967a1.277 1.277 0 0 1 .18-1.344l4.728-5.933a1.29 1.29 0 0 0 .16-1.367l-1.735-3.629a1.28 1.28 0 0 0-2.158-.247L.28 18.154a1.295 1.295 0 0 0-.152 1.363l1.104 2.308 1.105 2.307c.214.445.663.735 1.155.735h16.207c.945 0 1.566-.991 1.156-1.846l-1.738-3.627a1.28 1.28 0 0 0-1.163-.728h-7.568a1.266 1.266 0 0 1-1.16-.699"/>
        <path fill="#00642D" d="M12.704 7.72L7.97 13.648a1.292 1.292 0 0 0-.16 1.366l1.649 3.433a1.275 1.275 0 0 1 .194-1.302l4.734-5.929c.312-.387.375-.918.161-1.367l-1.644-3.434c.167.405.128.898-.2 1.303"/>
        <path fill="#FE551C" d="M12.905 6.417l-.345-.722a1.28 1.28 0 0 0-2.158-.247l-.6.752a1.5 1.5 0 0 1 1.361.86l.407.852c.184.446.15.982-.17 1.44l1.304-1.633c.328-.405.367-.898.2-1.302"/>
        <path fill="#008CB0" d="M9.456 18.448l.344.722a1.28 1.28 0 0 0 2.158.247l.6-.753a1.5 1.5 0 0 1-1.36-.86l-.407-.853a1.496 1.496 0 0 1 .169-1.439l-1.304 1.632a1.28 1.28 0 0 0-.2 1.304"/>
    </g>
</svg>
